ffmpeg version 3.4.8-0ubuntu0.2 Copyright (c) 2000-2020 the FFmpeg developers
  built with gcc 7 (Ubuntu 7.5.0-3ubuntu1~18.04)
  configuration: --prefix=/usr --extra-version=0ubuntu0.2 --toolchain=hardened --libdir=/usr/lib/x86_64-linux-gnu --incdir=/usr/include/x86_64-linux-gnu --enable-gpl --disable-stripping --enable-avresample --enable-avisynth --enable-gnutls --enable-ladspa --enable-libass --enable-libbluray --enable-libbs2b --enable-libcaca --enable-libcdio --enable-libflite --enable-libfontconfig --enable-libfreetype --enable-libfribidi --enable-libgme --enable-libgsm --enable-libmp3lame --enable-libmysofa --enable-libopenjpeg --enable-libopenmpt --enable-libopus --enable-libpulse --enable-librubberband --enable-librsvg --enable-libshine --enable-libsnappy --enable-libsoxr --enable-libspeex --enable-libssh --enable-libtheora --enable-libtwolame --enable-libvorbis --enable-libvpx --enable-libwavpack --enable-libwebp --enable-libx265 --enable-libxml2 --enable-libxvid --enable-libzmq --enable-libzvbi --enable-omx --enable-openal --enable-opengl --enable-sdl2 --enable-libdc1394 --enable-libdrm --enable-libiec61883 --enable-chromaprint --enable-frei0r --enable-libopencv --enable-libx264 --enable-shared
  libavutil      55. 78.100 / 55. 78.100
  libavcodec     57.107.100 / 57.107.100
  libavformat    57. 83.100 / 57. 83.100
  libavdevice    57. 10.100 / 57. 10.100
  libavfilter     6.107.100 /  6.107.100
  libavresample   3.  7.  0 /  3.  7.  0
  libswscale      4.  8.100 /  4.  8.100
  libswresample   2.  9.100 /  2.  9.100
  libpostproc    54.  7.100 / 54.  7.100
[rawvideo @ 0x55aca3900a20] Estimating duration from bitrate, this may be inaccurate
Input #0, rawvideo, from '../../SVC-Encoder-20220109T061506Z-001/SVC-Encoder/Dataset/RollerCoaster/6f_2x2/tile_yuv/f3_t1_480x480.yuv':
  Duration: 00:00:10.00, start: 0.000000, bitrate: 82944 kb/s
    Stream #0:0: Video: rawvideo (I420 / 0x30323449), yuv420p, 480x480, 82944 kb/s, 30 tbr, 30 tbn, 30 tbc
Stream mapping:
  Stream #0:0 -> #0:0 (rawvideo (native) -> h264 (libx264))
Press [q] to stop, [?] for help
[libx264 @ 0x55aca390dc60] using cpu capabilities: MMX2 SSE2Fast LZCNT SSSE3 SSE4.2 AVX
[libx264 @ 0x55aca390dc60] profile High, level 3.0
Output #0, rawvideo, to 'RollerCoaster_f3_t1_480x480_x264_QP_28.h264':
  Metadata:
    encoder         : Lavf57.83.100
    Stream #0:0: Video: h264 (libx264), yuv420p, 480x480, q=-1--1, 30 fps, 30 tbn, 30 tbc
    Metadata:
      encoder         : Lavc57.107.100 libx264
    Side data:
      cpb: bitrate max/min/avg: 0/0/0 buffer size: 0 vbv_delay: -1
frame=  140 fps=0.0 q=34.0 PSNR=Y:nan U:nan V:nan *:nan size=      76kB time=00:00:03.23 bitrate= 193.3kbits/s speed=6.42x    frame=  247 fps=245 q=34.0 PSNR=Y:nan U:nan V:nan *:nan size=     150kB time=00:00:06.80 bitrate= 180.7kbits/s speed=6.76x    frame=  300 fps=215 q=34.0 LPSNR=Y:inf U:inf V:inf *:inf size=     220kB time=00:00:09.93 bitrate= 181.6kbits/s speed=7.12x    
video:220kB audio:0kB subtitle:0kB other streams:0kB global headers:0kB muxing overhead: 0.000000%
[libx264 @ 0x55aca390dc60] frame I:2     Avg QP:26.60  size: 12020  PSNR Mean Y:43.48 U:45.94 V:44.90 Avg:44.03 Global:43.94
[libx264 @ 0x55aca390dc60] frame P:76    Avg QP:27.61  size:  1639  PSNR Mean Y:42.00 U:45.74 V:44.57 Avg:42.81 Global:42.79
[libx264 @ 0x55aca390dc60] frame B:222   Avg QP:33.52  size:   347  PSNR Mean Y:41.35 U:45.60 V:44.46 Avg:42.26 Global:42.25
[libx264 @ 0x55aca390dc60] consecutive B-frames:  1.0%  0.7%  1.0% 97.3%
[libx264 @ 0x55aca390dc60] mb I  I16..4: 43.4% 37.4% 19.1%
[libx264 @ 0x55aca390dc60] mb P  I16..4:  1.0%  1.1%  0.1%  P16..4: 31.8%  9.4%  2.2%  0.0%  0.0%    skip:54.4%
[libx264 @ 0x55aca390dc60] mb B  I16..4:  0.1%  0.1%  0.0%  B16..8: 22.8%  1.2%  0.1%  direct: 0.1%  skip:75.6%  L0:41.3% L1:57.0% BI: 1.8%
[libx264 @ 0x55aca390dc60] 8x8 transform intra:44.5% inter:73.9%
[libx264 @ 0x55aca390dc60] coded y,uvDC,uvAC intra: 37.6% 53.2% 23.3% inter: 3.2% 2.6% 0.0%
[libx264 @ 0x55aca390dc60] i16 v,h,dc,p: 56% 25% 12%  6%
[libx264 @ 0x55aca390dc60] i8 v,h,dc,ddl,ddr,vr,hd,vl,hu: 24% 12% 32%  6%  3%  7%  6%  4%  6%
[libx264 @ 0x55aca390dc60] i4 v,h,dc,ddl,ddr,vr,hd,vl,hu: 20% 32% 18%  4%  6%  4% 11%  2%  4%
[libx264 @ 0x55aca390dc60] i8c dc,h,v,p: 48% 22% 21%  9%
[libx264 @ 0x55aca390dc60] Weighted P-Frames: Y:0.0% UV:0.0%
[libx264 @ 0x55aca390dc60] ref P L0: 55.1% 13.8% 22.6%  8.5%
[libx264 @ 0x55aca390dc60] ref B L0: 68.9% 24.7%  6.3%
[libx264 @ 0x55aca390dc60] ref B L1: 79.4% 20.6%
[libx264 @ 0x55aca390dc60] PSNR Mean Y:41.531 U:45.636 V:44.494 Avg:42.411 Global:42.389 kb/s:180.42
